<svg version="1" xmlns="http://www.w3.org/2000/svg" width="348" height="348" viewBox="0 0 261.000000 261.000000"><path d="M94 4.7C41.9 8.5 1.3 51.3.8 103c-.2 12.6.6 18.7 3.8 29.8 7.7 26.5 26.6 49.2 50.9 61.1 4.4 2.1 9.7 4.4 11.7 5 2.8.9 4.4 2.4 6.4 5.9 13.7 23.5 36.2 40.6 62 47.1 11.1 2.8 14.6 3.2 25.9 3.2 37.6-.2 71.4-21.4 88.5-55.6 7.2-14.4 10.2-26.5 10.3-43 .3-27.7-9-51.5-27.7-70.8-11-11.3-23.6-19.5-38.6-25.1-3.7-1.4-5-2.6-7-6.3-8.3-15.6-24.1-30.3-42.4-39.3-16.1-7.9-34-11.5-50.6-10.3zm15 44.9c1.9.3 4.6.8 6 1.1 4.1.7 17.3 7.4 16.4 8.3-.5.4-2.7 1.3-4.9 2s-7.4 3-11.5 5c-28.1 14.1-48 41.8-53.5 74.4l-.6 3.9-2.9-3.4c-5.2-6.1-11-18.2-12.5-26.4-.9-5.1-.6-17.1.6-22.2 6.7-28.2 35.4-47.7 62.9-42.7zm47.4 57.5c-1.1 25.3-19.7 47.2-44.4 52.3-3.6.7-6.7 1.2-6.9 1-.2-.1-.3-3.3-.2-7.1.4-25.3 20.3-48.6 45.6-53.2 6-1.1 6.3-.8 5.9 7zm50.5 17c6.5 9.7 9.3 18.7 9.4 30.4.2 15.9-5.1 28.6-16.7 40-17.4 17.3-42.1 21.3-64.3 10.3-3.5-1.7-6-3.4-5.6-3.8.4-.4 2.6-1.3 4.8-2 16-5.1 35.4-19.4 46.6-34.7 5.5-7.4 12-19.8 14.8-28.6 2.5-7.3 2.6-7.8 3.7-15 .8-5.6 1.5-5.3 7.3 3.4z"/></svg>